<mxfile host="app.diagrams.net" agent="Mozilla/5.0 (Windows NT 10.0; Win64; x64; rv:128.0) Gecko/20100101 Firefox/128.0" version="24.7.6">
  <diagram name="Page-1" id="khJitQyfaOCplYoJbGrk">
    <mxGraphModel dx="1900" dy="566" grid="1" gridSize="10" guides="1" tooltips="1" connect="1" arrows="1" fold="1" page="1" pageScale="1" pageWidth="850" pageHeight="1100" math="0" shadow="0">
      <root>
        <mxCell id="0" />
        <mxCell id="1" parent="0" />
        <mxCell id="H22XcNIQxckIvmQ4WJLZ-1" value="IMPREST REQUEST" style="swimlane;childLayout=stackLayout;resizeParent=1;resizeParentMax=0;horizontal=1;startSize=20;horizontalStack=0;html=1;fillColor=#8ED0F0;" parent="1" vertex="1">
          <mxGeometry x="-810" y="50" width="960" height="960" as="geometry" />
        </mxCell>
        <mxCell id="H22XcNIQxckIvmQ4WJLZ-5" value="EMPLOYEE" style="swimlane;startSize=20;horizontal=0;html=1;swimlaneFillColor=#8ed0f0;fillColor=#8ED0F0;" parent="H22XcNIQxckIvmQ4WJLZ-1" vertex="1">
          <mxGeometry y="20" width="960" height="260" as="geometry" />
        </mxCell>
        <mxCell id="H22XcNIQxckIvmQ4WJLZ-6" value="start" style="ellipse;whiteSpace=wrap;html=1;" parent="H22XcNIQxckIvmQ4WJLZ-5" vertex="1">
          <mxGeometry x="30" y="70" width="80" height="50" as="geometry" />
        </mxCell>
        <mxCell id="H22XcNIQxckIvmQ4WJLZ-9" value="" style="edgeStyle=orthogonalEdgeStyle;rounded=0;orthogonalLoop=1;jettySize=auto;html=1;" parent="H22XcNIQxckIvmQ4WJLZ-5" source="H22XcNIQxckIvmQ4WJLZ-7" target="H22XcNIQxckIvmQ4WJLZ-8" edge="1">
          <mxGeometry relative="1" as="geometry" />
        </mxCell>
        <mxCell id="H22XcNIQxckIvmQ4WJLZ-7" value="&lt;div&gt;request &lt;br&gt;&lt;/div&gt;&lt;div&gt;fund&lt;br&gt;&lt;/div&gt;" style="whiteSpace=wrap;html=1;aspect=fixed;" parent="H22XcNIQxckIvmQ4WJLZ-5" vertex="1">
          <mxGeometry x="170" y="62.5" width="65" height="65" as="geometry" />
        </mxCell>
        <mxCell id="H22XcNIQxckIvmQ4WJLZ-8" value="&lt;div&gt;submit&lt;/div&gt;&lt;div&gt;request&lt;br&gt;&lt;/div&gt;" style="whiteSpace=wrap;html=1;aspect=fixed;" parent="H22XcNIQxckIvmQ4WJLZ-5" vertex="1">
          <mxGeometry x="300" y="62.5" width="65" height="65" as="geometry" />
        </mxCell>
        <mxCell id="H22XcNIQxckIvmQ4WJLZ-10" value="" style="endArrow=classic;html=1;rounded=0;exitX=1;exitY=0.5;exitDx=0;exitDy=0;entryX=0;entryY=0.5;entryDx=0;entryDy=0;" parent="H22XcNIQxckIvmQ4WJLZ-5" source="H22XcNIQxckIvmQ4WJLZ-6" target="H22XcNIQxckIvmQ4WJLZ-7" edge="1">
          <mxGeometry width="50" height="50" relative="1" as="geometry">
            <mxPoint x="360" y="100" as="sourcePoint" />
            <mxPoint x="410" y="50" as="targetPoint" />
          </mxGeometry>
        </mxCell>
        <mxCell id="H22XcNIQxckIvmQ4WJLZ-13" value="end" style="ellipse;whiteSpace=wrap;html=1;" parent="H22XcNIQxckIvmQ4WJLZ-5" vertex="1">
          <mxGeometry x="810" y="70" width="90" height="42.5" as="geometry" />
        </mxCell>
        <mxCell id="H22XcNIQxckIvmQ4WJLZ-15" value="&lt;div&gt;notify,&lt;/div&gt;&lt;div&gt;request&lt;/div&gt;&lt;div&gt;rejected&lt;br&gt;&lt;/div&gt;" style="whiteSpace=wrap;html=1;aspect=fixed;" parent="H22XcNIQxckIvmQ4WJLZ-5" vertex="1">
          <mxGeometry x="660" y="170" width="50" height="50" as="geometry" />
        </mxCell>
        <mxCell id="H22XcNIQxckIvmQ4WJLZ-16" value="" style="endArrow=classic;html=1;rounded=0;exitX=1;exitY=0.5;exitDx=0;exitDy=0;entryX=0.611;entryY=1.012;entryDx=0;entryDy=0;entryPerimeter=0;" parent="H22XcNIQxckIvmQ4WJLZ-5" source="H22XcNIQxckIvmQ4WJLZ-15" target="H22XcNIQxckIvmQ4WJLZ-13" edge="1">
          <mxGeometry width="50" height="50" relative="1" as="geometry">
            <mxPoint x="600" y="260" as="sourcePoint" />
            <mxPoint x="650" y="210" as="targetPoint" />
            <Array as="points">
              <mxPoint x="865" y="195" />
            </Array>
          </mxGeometry>
        </mxCell>
        <mxCell id="H22XcNIQxckIvmQ4WJLZ-2" value="ACCOUNTANT" style="swimlane;startSize=20;horizontal=0;html=1;swimlaneFillColor=#8ed0f0;fillColor=#8ED0F0;" parent="H22XcNIQxckIvmQ4WJLZ-1" vertex="1">
          <mxGeometry y="280" width="960" height="240" as="geometry" />
        </mxCell>
        <mxCell id="H22XcNIQxckIvmQ4WJLZ-11" value="&lt;div&gt;approve&lt;/div&gt;&lt;div&gt;request&lt;/div&gt;&lt;div&gt;?&lt;br&gt;&lt;/div&gt;" style="rhombus;whiteSpace=wrap;html=1;" parent="H22XcNIQxckIvmQ4WJLZ-2" vertex="1">
          <mxGeometry x="190" y="40" width="80" height="80" as="geometry" />
        </mxCell>
        <mxCell id="H22XcNIQxckIvmQ4WJLZ-3" value="CHIEF ACCOUNTANT" style="swimlane;startSize=20;horizontal=0;html=1;swimlaneFillColor=#8ed0f0;fillColor=#8ED0F0;" parent="H22XcNIQxckIvmQ4WJLZ-1" vertex="1">
          <mxGeometry y="520" width="960" height="220" as="geometry" />
        </mxCell>
        <mxCell id="H22XcNIQxckIvmQ4WJLZ-18" value="&lt;div&gt;approve&lt;/div&gt;&lt;div&gt;request&lt;/div&gt;&lt;div&gt;?&lt;br&gt;&lt;/div&gt;" style="rhombus;whiteSpace=wrap;html=1;" parent="H22XcNIQxckIvmQ4WJLZ-3" vertex="1">
          <mxGeometry x="230" y="90" width="80" height="80" as="geometry" />
        </mxCell>
        <mxCell id="H22XcNIQxckIvmQ4WJLZ-19" value="&lt;div&gt;review&lt;/div&gt;&lt;div&gt;request&lt;br&gt;&lt;/div&gt;" style="whiteSpace=wrap;html=1;aspect=fixed;" parent="H22XcNIQxckIvmQ4WJLZ-3" vertex="1">
          <mxGeometry x="80" y="90" width="80" height="80" as="geometry" />
        </mxCell>
        <mxCell id="H22XcNIQxckIvmQ4WJLZ-22" value="" style="endArrow=classic;html=1;rounded=0;exitX=1;exitY=0.5;exitDx=0;exitDy=0;entryX=0;entryY=0.5;entryDx=0;entryDy=0;" parent="H22XcNIQxckIvmQ4WJLZ-3" source="H22XcNIQxckIvmQ4WJLZ-19" target="H22XcNIQxckIvmQ4WJLZ-18" edge="1">
          <mxGeometry width="50" height="50" relative="1" as="geometry">
            <mxPoint x="360" y="-40" as="sourcePoint" />
            <mxPoint x="410" y="-90" as="targetPoint" />
          </mxGeometry>
        </mxCell>
        <mxCell id="H22XcNIQxckIvmQ4WJLZ-4" value="UNIT/DEPARTMENT ACCOUNTANT" style="swimlane;startSize=20;horizontal=0;html=1;swimlaneFillColor=#8ed0f0;fillColor=#8ED0F0;" parent="H22XcNIQxckIvmQ4WJLZ-1" vertex="1">
          <mxGeometry y="740" width="960" height="220" as="geometry" />
        </mxCell>
        <mxCell id="H22XcNIQxckIvmQ4WJLZ-29" value="" style="edgeStyle=orthogonalEdgeStyle;rounded=0;orthogonalLoop=1;jettySize=auto;html=1;" parent="H22XcNIQxckIvmQ4WJLZ-4" source="H22XcNIQxckIvmQ4WJLZ-25" target="H22XcNIQxckIvmQ4WJLZ-28" edge="1">
          <mxGeometry relative="1" as="geometry" />
        </mxCell>
        <mxCell id="H22XcNIQxckIvmQ4WJLZ-25" value="&lt;div&gt;process&lt;/div&gt;&lt;div&gt;payment&lt;br&gt;&lt;/div&gt;" style="whiteSpace=wrap;html=1;aspect=fixed;" parent="H22XcNIQxckIvmQ4WJLZ-4" vertex="1">
          <mxGeometry x="230" y="50" width="80" height="80" as="geometry" />
        </mxCell>
        <mxCell id="H22XcNIQxckIvmQ4WJLZ-28" value="&lt;div&gt;make&lt;br&gt;&lt;/div&gt;&lt;div&gt;payment&lt;br&gt;&lt;/div&gt;" style="whiteSpace=wrap;html=1;aspect=fixed;" parent="H22XcNIQxckIvmQ4WJLZ-4" vertex="1">
          <mxGeometry x="437.5" y="47.5" width="85" height="85" as="geometry" />
        </mxCell>
        <mxCell id="H22XcNIQxckIvmQ4WJLZ-12" value="" style="endArrow=classic;html=1;rounded=0;exitX=0.5;exitY=1;exitDx=0;exitDy=0;entryX=0.5;entryY=0;entryDx=0;entryDy=0;" parent="H22XcNIQxckIvmQ4WJLZ-1" source="H22XcNIQxckIvmQ4WJLZ-8" target="H22XcNIQxckIvmQ4WJLZ-11" edge="1">
          <mxGeometry width="50" height="50" relative="1" as="geometry">
            <mxPoint x="360" y="280" as="sourcePoint" />
            <mxPoint x="410" y="230" as="targetPoint" />
            <Array as="points">
              <mxPoint x="333" y="290" />
              <mxPoint x="230" y="290" />
            </Array>
          </mxGeometry>
        </mxCell>
        <mxCell id="H22XcNIQxckIvmQ4WJLZ-20" value="" style="endArrow=classic;html=1;rounded=0;exitX=0;exitY=0.5;exitDx=0;exitDy=0;entryX=0.35;entryY=-0.037;entryDx=0;entryDy=0;entryPerimeter=0;" parent="H22XcNIQxckIvmQ4WJLZ-1" source="H22XcNIQxckIvmQ4WJLZ-11" target="H22XcNIQxckIvmQ4WJLZ-19" edge="1">
          <mxGeometry width="50" height="50" relative="1" as="geometry">
            <mxPoint x="360" y="500" as="sourcePoint" />
            <mxPoint x="410" y="450" as="targetPoint" />
            <Array as="points">
              <mxPoint x="108" y="360" />
            </Array>
          </mxGeometry>
        </mxCell>
        <mxCell id="H22XcNIQxckIvmQ4WJLZ-21" value="YES" style="edgeLabel;html=1;align=center;verticalAlign=middle;resizable=0;points=[];" parent="H22XcNIQxckIvmQ4WJLZ-20" vertex="1" connectable="0">
          <mxGeometry x="-0.7937" y="2" relative="1" as="geometry">
            <mxPoint as="offset" />
          </mxGeometry>
        </mxCell>
        <mxCell id="H22XcNIQxckIvmQ4WJLZ-23" value="" style="endArrow=classic;html=1;rounded=0;exitX=1;exitY=0.5;exitDx=0;exitDy=0;entryX=0.75;entryY=1;entryDx=0;entryDy=0;strokeColor=#FF3333;" parent="H22XcNIQxckIvmQ4WJLZ-1" source="H22XcNIQxckIvmQ4WJLZ-18" target="H22XcNIQxckIvmQ4WJLZ-15" edge="1">
          <mxGeometry width="50" height="50" relative="1" as="geometry">
            <mxPoint x="400" y="450" as="sourcePoint" />
            <mxPoint x="740" y="540" as="targetPoint" />
            <Array as="points">
              <mxPoint x="700" y="650" />
            </Array>
          </mxGeometry>
        </mxCell>
        <mxCell id="H22XcNIQxckIvmQ4WJLZ-24" value="NO" style="edgeLabel;html=1;align=center;verticalAlign=middle;resizable=0;points=[];" parent="H22XcNIQxckIvmQ4WJLZ-23" vertex="1" connectable="0">
          <mxGeometry x="-0.6525" y="-3" relative="1" as="geometry">
            <mxPoint as="offset" />
          </mxGeometry>
        </mxCell>
        <mxCell id="H22XcNIQxckIvmQ4WJLZ-26" value="" style="endArrow=classic;html=1;rounded=0;exitX=0.5;exitY=1;exitDx=0;exitDy=0;entryX=0.5;entryY=0;entryDx=0;entryDy=0;" parent="H22XcNIQxckIvmQ4WJLZ-1" source="H22XcNIQxckIvmQ4WJLZ-18" target="H22XcNIQxckIvmQ4WJLZ-25" edge="1">
          <mxGeometry width="50" height="50" relative="1" as="geometry">
            <mxPoint x="400" y="760" as="sourcePoint" />
            <mxPoint x="450" y="710" as="targetPoint" />
          </mxGeometry>
        </mxCell>
        <mxCell id="H22XcNIQxckIvmQ4WJLZ-27" value="YES" style="edgeLabel;html=1;align=center;verticalAlign=middle;resizable=0;points=[];" parent="H22XcNIQxckIvmQ4WJLZ-26" vertex="1" connectable="0">
          <mxGeometry x="-0.44" y="1" relative="1" as="geometry">
            <mxPoint as="offset" />
          </mxGeometry>
        </mxCell>
        <mxCell id="H22XcNIQxckIvmQ4WJLZ-14" value="" style="endArrow=classic;html=1;rounded=0;exitX=0.5;exitY=1;exitDx=0;exitDy=0;strokeColor=#ff0000;entryX=0.25;entryY=1;entryDx=0;entryDy=0;" parent="H22XcNIQxckIvmQ4WJLZ-1" source="H22XcNIQxckIvmQ4WJLZ-11" target="H22XcNIQxckIvmQ4WJLZ-15" edge="1">
          <mxGeometry width="50" height="50" relative="1" as="geometry">
            <mxPoint x="630" y="280" as="sourcePoint" />
            <mxPoint x="720" y="240" as="targetPoint" />
            <Array as="points">
              <mxPoint x="230" y="490" />
              <mxPoint x="260" y="490" />
              <mxPoint x="673" y="490" />
            </Array>
          </mxGeometry>
        </mxCell>
        <mxCell id="H22XcNIQxckIvmQ4WJLZ-17" value="NO" style="edgeLabel;html=1;align=center;verticalAlign=middle;resizable=0;points=[];" parent="H22XcNIQxckIvmQ4WJLZ-14" vertex="1" connectable="0">
          <mxGeometry x="-0.2625" y="1" relative="1" as="geometry">
            <mxPoint as="offset" />
          </mxGeometry>
        </mxCell>
        <mxCell id="H22XcNIQxckIvmQ4WJLZ-30" value="" style="endArrow=classic;html=1;rounded=0;exitX=1.018;exitY=0.582;exitDx=0;exitDy=0;exitPerimeter=0;entryX=1;entryY=1;entryDx=0;entryDy=0;" parent="H22XcNIQxckIvmQ4WJLZ-1" source="H22XcNIQxckIvmQ4WJLZ-28" target="H22XcNIQxckIvmQ4WJLZ-13" edge="1">
          <mxGeometry width="50" height="50" relative="1" as="geometry">
            <mxPoint x="430" y="710" as="sourcePoint" />
            <mxPoint x="890" y="460" as="targetPoint" />
            <Array as="points">
              <mxPoint x="887" y="840" />
            </Array>
          </mxGeometry>
        </mxCell>
      </root>
    </mxGraphModel>
  </diagram>
</mxfile>
